<svg xmlns="http://www.w3.org/2000/svg" xmlns:xlink="http://www.w3.org/1999/xlink" width="388" height="253" viewBox="0 0 388 253">
  <defs>
    <clipPath id="clip-_404">
      <rect width="388" height="253"/>
    </clipPath>
  </defs>
  <g id="_404" data-name="404" clip-path="url(#clip-_404)">
    <g id="Group_25" data-name="Group 25" transform="translate(-56.111 -175.307)">
      <g id="Shadow">
        <ellipse id="_Path_" data-name="&lt;Path&gt;" cx="193.889" cy="11.323" rx="193.889" ry="11.323" transform="translate(56.111 404.915)" fill="#f5f5f5"/>
      </g>
      <g id="Character">
        <g id="Group_21" data-name="Group 21">
          <path id="Path_16" data-name="Path 16" d="M234.088,412.636a4.484,4.484,0,0,1-3.987-2.425c-4.018-7.763-9.067-16.872-18.154-26.732a4.486,4.486,0,0,1-1.012-4.283c3.375-11.711,8.671-27.718,8.724-27.879a4.486,4.486,0,0,1,8.516,2.821c-.049.148-4.611,13.937-7.923,25.156a126.137,126.137,0,0,1,17.816,26.794,4.487,4.487,0,0,1-3.98,6.548Z" fill="#32d56e"/>
          <path id="Path_17" data-name="Path 17" d="M241.56,416.238H206.772l18.436-10.457,15.455.6Z" fill="#263238"/>
          <ellipse id="Ellipse_1" data-name="Ellipse 1" cx="30.042" cy="24.896" rx="30.042" ry="24.896" transform="translate(194.694 335.535) rotate(-17.357)" fill="#263238"/>
          <path id="Path_18" data-name="Path 18" d="M151.653,333.981a4.486,4.486,0,0,1-1.718-8.63,5.06,5.06,0,0,0,2.97-3.77,4.483,4.483,0,0,1,3.67-3.995,32.009,32.009,0,0,0,3.3-.845c6.078-1.775,13.605-3.976,37.31,2.662,23.381-13.076,23.647-37.6,23.647-38.655a4.491,4.491,0,0,1,4.47-4.494h.016A4.478,4.478,0,0,1,229.8,280.7c.009,1.3-.136,32.083-30.042,47.5a4.465,4.465,0,0,1-3.3.322c-22.6-6.525-28.957-4.666-34.068-3.171-.453.131-.912.266-1.38.4a13.839,13.839,0,0,1-7.641,7.891A4.479,4.479,0,0,1,151.653,333.981Z" fill="#263238"/>
          <path id="Path_19" data-name="Path 19" d="M204.081,301.891c-8.506-33.825-31.184-121.06,41.467-126.394,65.178-4.784,83.067,81.971,87.415,112.026a352.279,352.279,0,0,1,3.534,45.819,33.307,33.307,0,0,1-26.756,33.012c-35.511,7.213-69.116,8.238-91.748-.7a14.861,14.861,0,0,1-9.233-15.2C209.632,340.738,209.648,324.028,204.081,301.891Z" fill="#32d56e"/>
          <path id="Path_20" data-name="Path 20" d="M332.96,287.52c-4.1-28.324-20.221-107.042-76.66-111.964a16.4,16.4,0,0,0-16.075,8.518c-2.518,4.876-2.436,10.79,1.335,16.636C254,220,283.665,286.67,279.185,323c-2.04,16.53-12.407,29.728-3.385,48.31a291.158,291.158,0,0,0,33.94-4.96,33.294,33.294,0,0,0,26.76-33.01A351.648,351.648,0,0,0,332.96,287.52Z" opacity="0.1"/>
          <path id="Path_21" data-name="Path 21" d="M323.239,333.79a.448.448,0,0,1-.448-.443,350.074,350.074,0,0,0-3.53-45.76c-10.8-74.652-39.875-112.408-84.1-109.151a.443.443,0,0,1-.48-.414.449.449,0,0,1,.415-.48c44.752-3.3,74.172,34.723,85.05,109.916a351.006,351.006,0,0,1,3.539,45.879.449.449,0,0,1-.443.453Z" fill="#263238"/>
          <ellipse id="Ellipse_2" data-name="Ellipse 2" cx="30.042" cy="24.896" rx="30.042" ry="24.896" transform="translate(279.023 337.928) rotate(-17.358)" fill="#263238"/>
          <path id="Path_22" data-name="Path 22" d="M325.3,412.636a4.484,4.484,0,0,1-3.987-2.425c-4.018-7.763-9.067-16.871-18.154-26.732a4.486,4.486,0,0,1-1.011-4.283c3.374-11.711,8.671-27.718,8.723-27.879a4.486,4.486,0,0,1,8.517,2.821c-.05.148-4.612,13.937-7.924,25.156a126.138,126.138,0,0,1,17.816,26.794,4.487,4.487,0,0,1-3.98,6.548Z" fill="#32d56e"/>
          <path id="Path_23" data-name="Path 23" d="M315.876,275.906a4.486,4.486,0,0,1-2.1-8.452h0c.865-.46,20.4-11.135,25.878-36.769-13.021-5.446-36.423-17.739-41.54-23.917a4.493,4.493,0,0,1-.962-2.082,22.319,22.319,0,0,1,1-11l-2.362-4.562A4.486,4.486,0,1,1,303.757,185l3.4,6.562a4.485,4.485,0,0,1-.173,4.428,10.925,10.925,0,0,0-1.119,5.912c5.763,5.206,29.041,17.543,40.427,21.771a4.485,4.485,0,0,1,2.872,4.892c-5.072,32.766-30.141,46.27-31.2,46.829A4.466,4.466,0,0,1,315.876,275.906Z" fill="#263238"/>
          <path id="Path_24" data-name="Path 24" d="M301.566,206.149a2.242,2.242,0,0,1-1.876-3.469c.155-.238,3.863-5.83,9.5-7.341a2.243,2.243,0,0,1,1.162,4.332c-3.939,1.056-6.881,5.418-6.91,5.462A2.24,2.24,0,0,1,301.566,206.149Z" fill="#263238"/>
          <path id="Path_25" data-name="Path 25" d="M332.768,416.238H297.979l18.436-10.457,15.455.6Z" fill="#263238"/>
          <g id="Group_16" data-name="Group 16">
            <ellipse id="Ellipse_3" data-name="Ellipse 3" cx="23.923" cy="21.531" rx="23.923" ry="21.531" transform="matrix(0.996, -0.088, 0.088, 0.996, 232.28, 241.485)" fill="#fff"/>
            <ellipse id="Ellipse_4" data-name="Ellipse 4" cx="6.574" cy="11.957" rx="6.574" ry="11.957" transform="matrix(0.962, -0.274, 0.274, 0.962, 242.578, 253.218)" fill="#263238"/>
            <path id="Path_26" data-name="Path 26" d="M230.795,264.86c15.1-1.944,45.006-10.466,49.94-13.9-3.888-11.364-21.959-21.082-38.128-15.608C228.032,240.282,230.795,264.86,230.795,264.86Z" fill="#263238"/>
            <path id="Path_27" data-name="Path 27" d="M233.734,272.16c18.742-3.562,43.113-9.543,50.084-13.375-.43,12.229-3.98,24.616-23.119,28.8C245.062,291.008,233.734,272.16,233.734,272.16Z" fill="#263238"/>
          </g>
          <g id="Group_17" data-name="Group 17">
            <ellipse id="Ellipse_5" data-name="Ellipse 5" cx="14.719" cy="18.626" rx="14.719" ry="18.626" transform="matrix(0.834, -0.552, 0.552, 0.834, 185.459, 260.948)" fill="#fff"/>
            <path id="Path_28" data-name="Path 28" d="M208.337,268.68c1.138,5.357.156,9.826-2.193,9.982s-5.176-4.062-6.313-9.419-.156-9.826,2.193-9.982S207.2,263.322,208.337,268.68Z" fill="#263238"/>
            <path id="Path_29" data-name="Path 29" d="M189.748,266.628c10.132,1.2,30.25-.137,33.593-1.967-2.47-9.7-14.454-20.672-25.342-19.265C188.185,246.664,189.748,266.628,189.748,266.628Z" fill="#263238"/>
            <path id="Path_30" data-name="Path 30" d="M191.63,272.942c12.588.573,28.973.251,33.684-1.522-.43,9.606-2.951,18.773-15.812,18.622C198.994,289.919,191.63,272.942,191.63,272.942Z" fill="#263238"/>
          </g>
          <path id="Path_31" data-name="Path 31" d="M264.088,229.3a56.448,56.448,0,0,1-32.058-9.8,4.485,4.485,0,0,1,5.41-7.156,48.964,48.964,0,0,0,35.838,7.111,4.486,4.486,0,0,1,1.672,8.814A58.192,58.192,0,0,1,264.088,229.3Z" fill="#263238"/>
          <path id="Path_32" data-name="Path 32" d="M183.878,221.566a4.484,4.484,0,0,1-4.221-6c2.378-6.62,6.321-10.918,11.72-12.774,9.787-3.371,20.327,3.183,20.771,3.464a4.485,4.485,0,0,1-4.779,7.592c-2.042-1.271-8.374-4.2-13.1-2.564-2.724.947-4.742,3.34-6.17,7.315A4.486,4.486,0,0,1,183.878,221.566Z" fill="#263238"/>
          <path id="Path_33" data-name="Path 33" d="M219.231,297.246a1.276,1.276,0,0,1-.374-.054,1.336,1.336,0,0,1-.921-1.642,8.786,8.786,0,0,1,4.562-4.929c5.146-2.653,12.988-2.1,23.309,1.632a1.346,1.346,0,0,1-.916,2.531c-11.835-4.287-17.978-3.36-21.049-1.827a6.245,6.245,0,0,0-3.318,3.33A1.358,1.358,0,0,1,219.231,297.246Z" fill="#263238"/>
          <g id="Group_20" data-name="Group 20">
            <g id="Group_18" data-name="Group 18">
              <path id="Path_34" data-name="Path 34" d="M176.882,292.32A119.357,119.357,0,0,0,132.1,305.47c7.728-1.459,35.355,32.728,42.458,59.1,13.1-4.859,28.382-8.167,44.678-10.751C209.362,326.637,191.313,295.852,176.882,292.32Z" fill="#32d56e"/>
              <path id="Path_35" data-name="Path 35" d="M176.882,292.32A119.357,119.357,0,0,0,132.1,305.47c7.728-1.459,35.355,32.728,42.458,59.1,13.1-4.859,28.382-8.167,44.678-10.751C209.362,326.637,191.313,295.852,176.882,292.32Z" fill="#fff" opacity="0.6"/>
            </g>
            <g id="Group_19" data-name="Group 19">
              <path id="Path_36" data-name="Path 36" d="M176.882,292.32c-17.08-1.928-44.811,12.372-44.811,12.372-4.914,3.133-3.58,9.01-.9,11.49,2.572-3.691,31.233-13.294,42.007-14.583C167.817,296.64,172.8,293.043,176.882,292.32Z" fill="#32d56e"/>
              <path id="Path_37" data-name="Path 37" d="M176.882,292.32c-17.08-1.928-44.811,12.372-44.811,12.372-4.914,3.133-3.58,9.01-.9,11.49,2.572-3.691,31.233-13.294,42.007-14.583C167.817,296.64,172.8,293.043,176.882,292.32Z" fill="#fff" opacity="0.2"/>
            </g>
          </g>
          <path id="Path_38" data-name="Path 38" d="M151.656,333.981a4.479,4.479,0,0,1-3.761-2.035c-3.253-4.984-1.221-12.59-.781-14.063a4.485,4.485,0,0,1,8.6,2.559c-.733,2.51-.881,5.717-.3,6.6a4.486,4.486,0,0,1-3.752,6.937Z" fill="#263238"/>
        </g>
      </g>
    </g>
  </g>
</svg>
