<svg xmlns="http://www.w3.org/2000/svg" xmlns:xlink="http://www.w3.org/1999/xlink" width="16" height="16" viewBox="0 0 16 16">
  <defs>
    <clipPath id="clip-path">
      <path id="Path_2" data-name="Path 2" d="M42,149.59h6.29v7.793H42Zm0,0" transform="translate(-42 -149.59)"/>
    </clipPath>
    <clipPath id="clip-path-2">
      <path id="Path_6" data-name="Path 6" d="M15.566,179H30.479v8.489H15.566Zm0,0" transform="translate(-15.566 -179)"/>
    </clipPath>
    <clipPath id="clip-path-3">
      <path id="Path_9" data-name="Path 9" d="M15.379,216.641h15v1.875h-15Zm0,0" transform="translate(-15.379 -216.641)"/>
    </clipPath>
    <clipPath id="clip-path-4">
      <path id="Path_8" data-name="Path 8" d="M22.879,216.641c-4.143,0-7.5.4-7.5.89s3.357.889,7.5.889,7.5-.4,7.5-.889-3.358-.89-7.5-.89" transform="translate(-15.379 -216.641)"/>
    </clipPath>
    <clipPath id="clip-favicon">
      <rect width="16" height="16"/>
    </clipPath>
  </defs>
  <g id="favicon" clip-path="url(#clip-favicon)">
    <g id="Group_98" data-name="Group 98" transform="translate(-1.5 -3.974)">
      <g id="Group_1" data-name="Group 1" transform="translate(7.401 4.234)" clip-path="url(#clip-path)">
        <path id="Path_1" data-name="Path 1" d="M44.083,149.6h-.018c-.392,0-.735.51-.949,1.071a3.807,3.807,0,0,0-.26,1.6,1.462,1.462,0,0,0,.645,1.111,1.33,1.33,0,0,1,.38,1.1c-.033.925-.071,1.844-.121,2.752a6.561,6.561,0,0,1,.593-.668c-.034-.689-.062-1.385-.087-2.084a1.332,1.332,0,0,1,.381-1.1,1.464,1.464,0,0,0,.645-1.111,3.807,3.807,0,0,0-.26-1.6C44.82,150.112,44.477,149.6,44.083,149.6Zm4.807.1a.113.113,0,0,0-.226.013v2.734a.121.121,0,0,1-.094.12.119.119,0,0,1-.145-.116v-2.737a.113.113,0,0,0-.113-.113H48.23a.113.113,0,0,0-.113.113v2.734a.121.121,0,0,1-.094.12.119.119,0,0,1-.144-.116v-2.737a.113.113,0,0,0-.113-.113h-.082a.113.113,0,0,0-.113.113v2.734a.121.121,0,0,1-.094.12.118.118,0,0,1-.144-.116v-2.737a.113.113,0,0,0-.113-.113h-.083a.113.113,0,0,0-.113.113v2.734a.121.121,0,0,1-.094.12.119.119,0,0,1-.145-.116v-2.737a.113.113,0,0,0-.225-.013c-.059.534-.076,2.335-.052,2.571a1.462,1.462,0,0,0,.645,1.111,1.33,1.33,0,0,1,.38,1.1c0,.074-.006.149-.008.224q.2-.09.395-.179l0-.045a1.332,1.332,0,0,1,.381-1.1,1.464,1.464,0,0,0,.645-1.111c.024-.236.007-2.037-.052-2.571" transform="translate(-42.674 -149.599)" fill="#4f4c4c"/>
      </g>
      <path id="Path_3" data-name="Path 3" d="M44.66,170.915s-1.677,4.317-7.757,5.749c1.786-1.99,1.663-4.365,5.461-5.866a13.426,13.426,0,0,0,3.057-1.635s-.05,9.367-6.622,7.542a8.587,8.587,0,0,0,5.862-5.79" transform="translate(-30.535 -160.958)" fill="#32d56e"/>
      <path id="Path_4" data-name="Path 4" d="M26.247,160.943a6.666,6.666,0,0,0,3.4,4.926c-.65-1.525-.1-2.9-2.031-4.535a8.328,8.328,0,0,1-1.467-1.572s-1.849,5.511,2.377,5.752a5.317,5.317,0,0,1-2.282-4.571" transform="translate(-21.645 -153.464)" fill="#56df89"/>
      <g id="Group_2" data-name="Group 2" transform="translate(2.038 10.201)" clip-path="url(#clip-path-2)">
        <path id="Path_5" data-name="Path 5" d="M26.514,186.751l0,0,.006,0Zm-6.937,0,.006-.006,0,0Zm10.894-7.362c-.023.176-.044.35-.063.524s-.065.344-.094.515-.084.338-.124.506c-.019.084-.052.165-.078.248s-.052.164-.078.246-.06.161-.091.242l-.094.239c-.029.081-.071.157-.107.235l-.111.231c-.034.078-.081.151-.121.226l-.125.223a2.539,2.539,0,0,1-.135.216l-.139.213c-.044.073-.1.138-.148.207l-.152.2c-.048.07-.108.131-.162.2l-.164.192c-.112.126-.234.243-.35.365s-.25.225-.373.338-.262.209-.392.313-.276.189-.413.284l-.43.256-.446.224-.884.446.948.306.009,0c-.072.021-.148.04-.224.056-.179.041-.367.073-.556.1-.379.054-.766.087-1.155.112q-.291.016-.584.025c-.2.005-.385.007-.589.007s-.39,0-.584-.007-.39-.014-.585-.025c-.388-.025-.776-.056-1.154-.111-.189-.028-.376-.059-.556-.1-.078-.017-.155-.037-.228-.057l.012,0,.945-.305-.881-.445-.446-.224-.43-.255c-.137-.095-.277-.187-.413-.284s-.264-.205-.393-.313-.252-.221-.372-.338-.238-.239-.35-.365l-.165-.192c-.054-.065-.113-.126-.162-.2l-.151-.2c-.05-.069-.1-.135-.148-.207l-.139-.213c-.045-.071-.1-.141-.135-.216l-.124-.223c-.041-.074-.087-.147-.121-.225l-.112-.231c-.036-.078-.077-.154-.106-.234l-.1-.239c-.03-.081-.067-.159-.09-.242l-.079-.246c-.025-.083-.059-.163-.077-.248-.04-.168-.089-.336-.124-.506s-.065-.341-.094-.514-.041-.35-.063-.525c-.01.177-.018.352-.026.528s.008.355.015.533.037.354.055.533c.007.09.029.176.044.265l.051.264c.015.089.043.174.065.261l.071.261c.021.088.054.172.082.257l.09.256c.059.17.139.333.211.5.034.085.08.163.12.244l.127.242c.04.082.093.156.139.235l.145.232c.046.079.1.15.156.224l.161.223c.111.145.234.281.351.422s.254.266.381.4.273.246.411.369.292.226.437.34c.091.063.184.124.277.185-.01.009-.019.019-.029.031a.654.654,0,0,0-.057.072c-.01.014-.019.028-.029.042s-.018.035-.026.052a.565.565,0,0,0-.042.122.635.635,0,0,0-.01.07l0,.036v.009c0-.007.006.106,0,.059v0l0,.018v.016l0,.02a.694.694,0,0,0,.057.162c.017.029.036.059.055.086a.676.676,0,0,0,.056.066c.009.01.019.021.029.029l.025.023c.017.015.036.031.053.044l.049.035a1.575,1.575,0,0,0,.184.105,3.546,3.546,0,0,0,.651.225c.21.052.417.091.624.126.412.066.822.112,1.232.139.2.014.41.024.614.031s.407.01.617.011.409,0,.612-.011.409-.017.614-.031c.41-.026.82-.071,1.232-.139.207-.034.414-.073.624-.125a3.472,3.472,0,0,0,.651-.225,1.514,1.514,0,0,0,.184-.105l.049-.035.053-.044.026-.023.029-.029a.809.809,0,0,0,.056-.066c.02-.028.038-.057.055-.087a.873.873,0,0,0,.046-.115.643.643,0,0,0,.022-.138v-.017c0,.032,0-.055,0-.047v0l0-.019,0-.021a.563.563,0,0,0-.048-.157.532.532,0,0,0-.027-.052l-.028-.043a.654.654,0,0,0-.057-.072l-.029-.029c.093-.061.185-.121.276-.185.146-.113.294-.224.437-.34s.277-.243.411-.369.259-.262.381-.4.24-.278.351-.423l.161-.223c.052-.075.11-.145.156-.224l.145-.232c.047-.079.1-.153.139-.235l.127-.242c.041-.081.086-.159.12-.244l.109-.249c.036-.083.074-.165.1-.252l.09-.256c.029-.085.062-.169.082-.257l.071-.261c.023-.087.051-.173.065-.262.033-.177.072-.351.094-.529s.044-.354.055-.532.014-.356.015-.533-.016-.353-.026-.529" transform="translate(-15.591 -179.312)" fill="#393536"/>
      </g>
      <g id="Group_4" data-name="Group 4" transform="translate(2 17.838)" clip-path="url(#clip-path-3)">
        <g id="Group_3" data-name="Group 3" clip-path="url(#clip-path-4)">
          <path id="Path_7" data-name="Path 7" d="M15.379,216.641h15V218.4h-15Zm0,0" transform="translate(-15.379 -216.641)" fill="#393536"/>
        </g>
      </g>
    </g>
  </g>
</svg>
