<svg xmlns="http://www.w3.org/2000/svg" xmlns:xlink="http://www.w3.org/1999/xlink" width="512" height="512" viewBox="0 0 512 512">
  <defs>
    <clipPath id="clip-path">
      <path id="Path_2" data-name="Path 2" d="M42,149.59H241.1V396.282H42Zm0,0" transform="translate(-42 -149.59)"/>
    </clipPath>
    <clipPath id="clip-path-2">
      <path id="Path_6" data-name="Path 6" d="M15.566,179H487.628V447.722H15.566Zm0,0" transform="translate(-15.566 -179)"/>
    </clipPath>
    <clipPath id="clip-path-3">
      <path id="Path_9" data-name="Path 9" d="M15.379,216.641H490.2V276H15.379Zm0,0" transform="translate(-15.379 -216.641)"/>
    </clipPath>
    <clipPath id="clip-path-4">
      <path id="Path_8" data-name="Path 8" d="M252.79,216.641c-131.137,0-237.411,12.614-237.411,28.17s106.274,28.15,237.411,28.15c131.111,0,237.41-12.595,237.41-28.15s-106.3-28.17-237.41-28.17" transform="translate(-15.379 -216.641)"/>
    </clipPath>
    <clipPath id="clip-icon">
      <rect width="512" height="512"/>
    </clipPath>
  </defs>
  <g id="icon" clip-path="url(#clip-icon)">
    <g id="Group_98" data-name="Group 98" transform="translate(17 6.766)">
      <g id="Group_1" data-name="Group 1" transform="translate(172.977 4.234)" clip-path="url(#clip-path)">
        <path id="Path_1" data-name="Path 1" d="M82.019,149.6a2.884,2.884,0,0,1-.577,0c-12.419-.1-23.282,16.153-30.031,33.892-6.849,18.06-9.584,37.482-8.229,50.681,1.907,17.836,9.96,27.444,20.422,35.17,8,5.5,12.595,19.923,12.042,34.823-1.053,29.281-2.233,58.381-3.838,87.129a207.686,207.686,0,0,1,18.766-21.15c-1.078-21.824-1.956-43.853-2.759-65.979-.527-14.9,4.064-29.326,12.067-34.823,10.462-7.726,18.49-17.335,20.422-35.17,1.354-13.2-1.38-32.62-8.229-50.681C105.326,165.755,94.463,149.5,82.019,149.6Zm152.161,3.186a3.586,3.586,0,0,0-7.15.4v86.532a3.832,3.832,0,0,1-2.96,3.789,3.767,3.767,0,0,1-4.591-3.667V153.186a3.586,3.586,0,0,0-3.588-3.584h-2.609a3.586,3.586,0,0,0-3.588,3.584v86.532a3.828,3.828,0,0,1-2.985,3.789,3.757,3.757,0,0,1-4.566-3.667V153.186a3.586,3.586,0,0,0-3.588-3.584h-2.609a3.586,3.586,0,0,0-3.588,3.584v86.532a3.828,3.828,0,0,1-2.985,3.789,3.747,3.747,0,0,1-4.566-3.667V153.186a3.586,3.586,0,0,0-3.588-3.584h-2.634a3.581,3.581,0,0,0-3.563,3.584v86.532a3.828,3.828,0,0,1-2.986,3.789,3.767,3.767,0,0,1-4.591-3.667V153.186a3.573,3.573,0,0,0-7.125-.4c-1.856,16.9-2.408,73.93-1.631,81.387,1.907,17.836,9.96,27.444,20.422,35.17,8,5.5,12.594,19.923,12.042,34.823-.075,2.357-.175,4.714-.251,7.1q6.473-2.852,12.495-5.665c-.026-.482-.051-.957-.076-1.432-.527-14.9,4.064-29.326,12.067-34.823,10.462-7.726,18.49-17.335,20.422-35.17.753-7.457.226-64.483-1.631-81.387" transform="translate(-37.412 -149.525)" fill="#4f4c4c"/>
      </g>
      <path id="Path_3" data-name="Path 3" d="M282.467,224.61S229.38,361.264,36.9,406.6c56.524-63,52.636-138.163,172.859-185.677,61.441-24.265,96.766-51.76,96.766-51.76S304.946,465.683,96.889,407.905c0,0,134.9-28.8,185.578-183.295" transform="translate(103.334 -39.214)" fill="#32d56e"/>
      <path id="Path_4" data-name="Path 4" d="M41.508,197.142s3.764,90.848,107.7,155.921C128.64,304.8,146,261.419,84.936,209.511,53.726,182.967,38.5,159.762,38.5,159.762s-58.531,174.464,75.24,182.087c0,0-73.459-43.853-72.229-144.708" transform="translate(42.857 -90.197)" fill="#56df89"/>
      <g id="Group_2" data-name="Group 2" transform="translate(3.204 193.123)" clip-path="url(#clip-path-2)">
        <path id="Path_5" data-name="Path 5" d="M361.163,412.384l-.075-.077.176.154C361.239,412.461,361.314,412.487,361.163,412.384Zm-219.6.051.2-.2-.125.122C141.515,412.487,141.591,412.435,141.566,412.435ZM486.43,179.391c-.728,5.568-1.38,11.085-2.007,16.583-.9,5.466-2.058,10.886-2.961,16.307-1.129,5.395-2.659,10.687-3.939,16.005-.6,2.659-1.656,5.215-2.459,7.855-.878,2.582-1.656,5.189-2.484,7.778-.753,2.633-1.907,5.112-2.885,7.649l-2.986,7.579c-.928,2.556-2.233,4.965-3.387,7.424l-3.512,7.3c-1.078,2.479-2.559,4.765-3.838,7.148l-3.964,7.052a80.4,80.4,0,0,1-4.265,6.846l-4.391,6.75c-1.4,2.306-3.136,4.361-4.691,6.545l-4.817,6.422c-1.506,2.209-3.412,4.143-5.118,6.2l-5.193,6.069c-3.538,3.989-7.4,7.681-11.064,11.541-3.838,3.686-7.9,7.129-11.816,10.713-4.064,3.41-8.3,6.6-12.419,9.91-4.315,3.089-8.731,6-13.071,8.985l-13.6,8.1-14.125,7.1-28,14.123,30.005,9.685.276.1c-2.283.655-4.692,1.259-7.1,1.785-5.67,1.3-11.616,2.306-17.587,3.186-11.992,1.708-24.26,2.762-36.554,3.539q-9.22.52-18.49.8c-6.247.173-12.193.225-18.64.225-6.046,0-12.344-.052-18.49-.225-6.172-.18-12.344-.43-18.515-.8-12.294-.777-24.561-1.786-36.529-3.513-5.971-.88-11.917-1.882-17.587-3.186-2.459-.552-4.892-1.156-7.225-1.811l.376-.148,29.9-9.66-27.9-14.072-14.125-7.1-13.6-8.08c-4.34-3.006-8.756-5.915-13.071-9-4.114-3.314-8.355-6.5-12.444-9.91-3.888-3.564-7.978-7-11.791-10.713-3.663-3.834-7.527-7.553-11.064-11.541l-5.218-6.07c-1.706-2.055-3.588-3.988-5.118-6.2l-4.792-6.422c-1.581-2.184-3.312-4.265-4.692-6.545l-4.416-6.75c-1.43-2.261-3.036-4.464-4.265-6.853l-3.939-7.071c-1.3-2.357-2.759-4.669-3.838-7.129l-3.538-7.322c-1.154-2.46-2.434-4.868-3.362-7.4l-3.011-7.579c-.953-2.562-2.107-5.042-2.86-7.675l-2.509-7.778c-.8-2.614-1.857-5.17-2.434-7.855-1.279-5.318-2.81-10.636-3.914-16.005-.9-5.4-2.057-10.79-2.96-16.281-.653-5.523-1.305-11.066-2.007-16.609-.326,5.594-.577,11.137-.828,16.705.025,5.594.25,11.239.477,16.885.376,5.645,1.179,11.214,1.756,16.859.226,2.839.928,5.568,1.38,8.382l1.606,8.356c.477,2.807,1.354,5.517,2.057,8.253l2.258,8.253c.653,2.781,1.706,5.447,2.61,8.15l2.835,8.105c1.882,5.395,4.416,10.54,6.674,15.832,1.078,2.685,2.534,5.17,3.813,7.726l4.014,7.656c1.254,2.608,2.935,4.939,4.416,7.424l4.591,7.347c1.455,2.511,3.287,4.746,4.943,7.1l5.092,7.046c3.513,4.592,7.4,8.908,11.114,13.372,3.864,4.342,8.028,8.407,12.067,12.621,4.215,4.014,8.656,7.778,13,11.7,4.541,3.661,9.233,7.148,13.848,10.758,2.885,1.984,5.821,3.918,8.756,5.851-.3.3-.6.6-.928.976a20.719,20.719,0,0,0-1.807,2.28c-.326.43-.6.88-.9,1.329-.276.552-.577,1.1-.828,1.657a17.9,17.9,0,0,0-1.33,3.867,20.1,20.1,0,0,0-.326,2.209l-.076,1.124v.276c-.025-.225.2,3.34.1,1.856l.025.154.075.578.025.3.025.206.125.649a21.952,21.952,0,0,0,1.807,5.119c.552.931,1.129,1.856,1.756,2.736a21.4,21.4,0,0,0,1.782,2.081c.3.327.6.655.9.931l.8.726c.552.476,1.129.976,1.681,1.407l1.556,1.1a49.854,49.854,0,0,0,5.821,3.333,112.272,112.272,0,0,0,20.6,7.129c6.648,1.651,13.2,2.884,19.744,3.989,13.046,2.081,26.017,3.558,39.012,4.387,6.473.43,12.971.751,19.444.983,6.523.2,12.9.321,19.518.347,6.222-.026,12.946-.148,19.369-.347q9.709-.347,19.443-.983c12.97-.828,25.967-2.254,39.012-4.387,6.548-1.079,13.1-2.312,19.744-3.969a109.914,109.914,0,0,0,20.6-7.123,47.91,47.91,0,0,0,5.82-3.333l1.556-1.1c.552-.43,1.129-.931,1.681-1.407l.828-.726c.276-.276.6-.629.9-.931a25.669,25.669,0,0,0,1.781-2.081c.627-.88,1.2-1.8,1.756-2.762a27.607,27.607,0,0,0,1.455-3.635,20.357,20.357,0,0,0,.7-4.367l.025-.552c.05,1.028-.075-1.728-.05-1.477l-.025-.052-.051-.6-.1-.674a17.8,17.8,0,0,0-1.505-4.971,16.856,16.856,0,0,0-.853-1.657c-.275-.45-.577-.9-.878-1.355a20.7,20.7,0,0,0-1.806-2.28c-.326-.353-.627-.655-.9-.931,2.936-1.927,5.846-3.834,8.731-5.844,4.617-3.584,9.308-7.1,13.849-10.758,4.34-3.918,8.781-7.682,13-11.7,4.039-4.213,8.2-8.279,12.067-12.595,3.713-4.489,7.6-8.806,11.114-13.4l5.092-7.046c1.656-2.364,3.488-4.592,4.943-7.1L453.388,318c1.48-2.486,3.161-4.843,4.416-7.431l4.014-7.649c1.3-2.556,2.735-5.042,3.814-7.726l3.462-7.88c1.129-2.633,2.333-5.215,3.211-7.977l2.835-8.105c.9-2.7,1.957-5.344,2.61-8.125l2.232-8.253c.728-2.762,1.606-5.472,2.058-8.279,1.053-5.6,2.283-11.118,2.985-16.737.577-5.645,1.38-11.214,1.756-16.834.226-5.646.452-11.265.477-16.859-.251-5.62-.5-11.188-.828-16.756" transform="translate(-15.397 -176.88)" fill="#393536"/>
      </g>
      <g id="Group_4" data-name="Group 4" transform="translate(2 434.876)" clip-path="url(#clip-path-3)">
        <g id="Group_3" data-name="Group 3" clip-path="url(#clip-path-4)">
          <path id="Path_7" data-name="Path 7" d="M15.379,216.641H490.2v55.645H15.379Zm0,0" transform="translate(-15.379 -216.641)" fill="#393536"/>
        </g>
      </g>
    </g>
  </g>
</svg>
