<svg xmlns="http://www.w3.org/2000/svg" xmlns:xlink="http://www.w3.org/1999/xlink" width="250" height="65" viewBox="0 0 250 65">
  <defs>
    <clipPath id="clip-path">
      <path id="Path_2" data-name="Path 2" d="M42,149.59H68.411v32.725H42Zm0,0" transform="translate(-42 -149.59)"/>
    </clipPath>
    <clipPath id="clip-path-2">
      <path id="Path_6" data-name="Path 6" d="M15.566,179h62.62v35.647H15.566Zm0,0" transform="translate(-15.566 -179)"/>
    </clipPath>
    <clipPath id="clip-path-3">
      <path id="Path_9" data-name="Path 9" d="M15.379,216.641H78.365v7.874H15.379Zm0,0" transform="translate(-15.379 -216.641)"/>
    </clipPath>
    <clipPath id="clip-path-4">
      <path id="Path_8" data-name="Path 8" d="M46.872,216.641c-17.4,0-31.493,1.673-31.493,3.737s14.1,3.734,31.493,3.734,31.493-1.671,31.493-3.734-14.1-3.737-31.493-3.737" transform="translate(-15.379 -216.641)"/>
    </clipPath>
    <clipPath id="clip-logo">
      <rect width="250" height="65"/>
    </clipPath>
  </defs>
  <g id="logo" clip-path="url(#clip-logo)">
    <g id="Group_98" data-name="Group 98" transform="translate(-2 -4.234)">
      <g id="Group_1" data-name="Group 1" transform="translate(24.681 4.234)" clip-path="url(#clip-path)">
        <path id="Path_1" data-name="Path 1" d="M48.042,149.6a.382.382,0,0,1-.077,0c-1.647-.014-3.088,2.143-3.984,4.5a15.986,15.986,0,0,0-1.092,6.723,6.138,6.138,0,0,0,2.709,4.665c1.062.729,1.671,2.643,1.6,4.619-.14,3.884-.3,7.744-.509,11.558a27.55,27.55,0,0,1,2.489-2.806c-.143-2.9-.26-5.817-.366-8.752-.07-1.977.539-3.89,1.6-4.619a6.147,6.147,0,0,0,2.709-4.665,15.986,15.986,0,0,0-1.092-6.723C51.134,151.745,49.693,149.588,48.042,149.6Zm20.185.423a.476.476,0,0,0-.949.053v11.479a.508.508,0,0,1-.393.5.5.5,0,0,1-.609-.486V150.077a.476.476,0,0,0-.476-.475h-.346a.476.476,0,0,0-.476.475v11.479a.508.508,0,0,1-.4.5.5.5,0,0,1-.606-.486V150.077a.476.476,0,0,0-.476-.475h-.346a.476.476,0,0,0-.476.475v11.479a.508.508,0,0,1-.4.5.5.5,0,0,1-.606-.486V150.077a.476.476,0,0,0-.476-.475h-.349a.475.475,0,0,0-.473.475v11.479a.508.508,0,0,1-.4.5.5.5,0,0,1-.609-.486V150.077a.474.474,0,0,0-.945-.053c-.246,2.242-.319,9.807-.216,10.8a6.138,6.138,0,0,0,2.709,4.665c1.062.729,1.671,2.643,1.6,4.619-.01.313-.023.625-.033.941q.859-.378,1.657-.751l-.01-.19c-.07-1.977.539-3.89,1.6-4.619a6.147,6.147,0,0,0,2.709-4.665c.1-.989.03-8.554-.216-10.8" transform="translate(-42.125 -149.592)" fill="#4f4c4c"/>
      </g>
      <path id="Path_3" data-name="Path 3" d="M69.477,176.519S62.435,194.647,36.9,200.661c7.5-8.357,6.982-18.328,22.93-24.631a56.378,56.378,0,0,0,12.836-6.866s-.21,39.334-27.809,31.67c0,0,17.895-3.82,24.617-24.315" transform="translate(-16.565 -148.253)" fill="#32d56e"/>
      <path id="Path_4" data-name="Path 4" d="M27.84,164.721s.5,12.051,14.287,20.683C39.4,179,41.7,173.247,33.6,166.361a34.97,34.97,0,0,1-6.16-6.6s-7.764,23.143,9.981,24.154c0,0-9.745-5.817-9.581-19.2" transform="translate(-14.914 -146.861)" fill="#56df89"/>
      <g id="Group_2" data-name="Group 2" transform="translate(2.16 29.291)" clip-path="url(#clip-path-2)">
        <path id="Path_5" data-name="Path 5" d="M61.438,210.3l-.01-.01.023.02S61.458,210.312,61.438,210.3Zm-29.13.007.027-.026-.017.016C32.3,210.312,32.311,210.305,32.308,210.305Zm45.747-30.914c-.1.739-.183,1.471-.266,2.2-.12.725-.273,1.444-.393,2.163-.15.716-.353,1.418-.523,2.123-.08.353-.22.692-.326,1.042s-.22.688-.329,1.032-.253.678-.383,1.015l-.4,1.005c-.123.339-.3.659-.449.985l-.466.969c-.143.329-.339.632-.509.948l-.526.935a10.662,10.662,0,0,1-.566.908l-.582.9c-.186.306-.416.578-.622.868l-.639.852c-.2.293-.453.55-.679.822l-.689.805c-.469.529-.982,1.019-1.468,1.531-.509.489-1.048.946-1.567,1.421-.539.452-1.1.876-1.647,1.315-.572.41-1.158.8-1.734,1.192l-1.8,1.074-1.874.942L55.9,208.308l3.98,1.285.037.013c-.3.087-.622.167-.942.237-.752.173-1.541.306-2.333.423-1.591.227-3.218.366-4.849.469q-1.223.069-2.453.106c-.829.023-1.617.03-2.473.03-.8,0-1.637-.007-2.453-.03s-1.637-.057-2.456-.106c-1.631-.1-3.258-.237-4.846-.466-.792-.117-1.581-.25-2.333-.423-.326-.073-.649-.153-.958-.24l.05-.02,3.967-1.281-3.7-1.867-1.874-.942-1.8-1.072c-.576-.4-1.162-.785-1.734-1.194-.546-.44-1.108-.862-1.651-1.315-.516-.473-1.058-.929-1.564-1.421-.486-.509-1-1-1.468-1.531l-.692-.805c-.226-.273-.476-.529-.679-.822l-.636-.852c-.21-.29-.439-.566-.622-.868l-.586-.9c-.19-.3-.4-.592-.566-.909l-.523-.938c-.173-.313-.366-.619-.509-.946l-.469-.971c-.153-.326-.323-.646-.446-.981l-.4-1.005c-.126-.34-.28-.669-.379-1.018l-.333-1.032c-.106-.347-.246-.686-.323-1.042-.17-.705-.373-1.411-.519-2.123-.12-.716-.273-1.431-.393-2.16-.087-.733-.173-1.468-.266-2.2-.043.742-.077,1.477-.11,2.216,0,.742.033,1.491.063,2.24.05.749.156,1.488.233,2.236.03.377.123.739.183,1.112l.213,1.108c.063.372.18.732.273,1.095l.3,1.095c.087.369.226.722.346,1.081l.376,1.075c.25.716.586,1.4.885,2.1.143.356.336.686.506,1.025l.532,1.016c.166.346.389.655.586.985l.609.975c.193.333.436.63.656.942l.676.935c.466.609.982,1.182,1.474,1.774.513.576,1.065,1.115,1.6,1.674.559.532,1.148,1.032,1.724,1.551.6.486,1.225.948,1.837,1.427.383.263.772.52,1.162.776-.04.039-.08.079-.123.129a2.748,2.748,0,0,0-.24.3c-.043.057-.08.117-.12.176s-.077.147-.11.22a2.374,2.374,0,0,0-.176.513,2.667,2.667,0,0,0-.043.293l-.01.149v.037c0-.03.027.443.013.246l0,.02.01.077,0,.039,0,.027.017.086a2.912,2.912,0,0,0,.24.679c.073.124.15.246.233.363a2.84,2.84,0,0,0,.236.276c.04.043.08.087.12.124l.106.1c.073.063.15.13.223.187l.206.147a6.61,6.61,0,0,0,.772.442,14.893,14.893,0,0,0,2.732.946c.882.219,1.751.383,2.619.529,1.731.276,3.451.472,5.175.582.859.057,1.721.1,2.579.13s1.711.043,2.589.046c.825,0,1.717-.02,2.569-.046s1.717-.073,2.579-.13c1.721-.11,3.445-.3,5.175-.582.869-.143,1.737-.307,2.619-.527a14.581,14.581,0,0,0,2.732-.945,6.356,6.356,0,0,0,.772-.442l.206-.147c.073-.057.15-.124.223-.187l.11-.1c.037-.037.08-.083.12-.124a3.4,3.4,0,0,0,.236-.276c.083-.117.16-.239.233-.366a3.662,3.662,0,0,0,.193-.482,2.7,2.7,0,0,0,.093-.579l0-.073c.007.136-.01-.229-.007-.2l0-.007-.007-.08-.013-.089a2.362,2.362,0,0,0-.2-.659,2.235,2.235,0,0,0-.113-.22c-.037-.06-.076-.119-.116-.18a2.746,2.746,0,0,0-.24-.3c-.043-.047-.083-.087-.12-.124.389-.256.775-.509,1.158-.775.612-.475,1.235-.941,1.837-1.427.576-.52,1.165-1.019,1.724-1.551.536-.559,1.088-1.1,1.6-1.671.493-.6,1.008-1.168,1.474-1.777l.676-.935c.22-.314.463-.609.656-.942l.609-.975c.2-.33.419-.642.586-.986l.532-1.015c.173-.339.363-.669.506-1.025l.459-1.045c.15-.349.31-.692.426-1.058l.376-1.075c.12-.359.26-.709.346-1.078l.3-1.095c.1-.366.213-.726.273-1.1.14-.743.3-1.475.4-2.22.076-.749.183-1.488.233-2.233.03-.749.06-1.494.063-2.236-.033-.745-.067-1.484-.11-2.223" transform="translate(-15.571 -179.058)" fill="#393536"/>
      </g>
      <g id="Group_4" data-name="Group 4" transform="translate(2 61.36)" clip-path="url(#clip-path-3)">
        <g id="Group_3" data-name="Group 3" clip-path="url(#clip-path-4)">
          <path id="Path_7" data-name="Path 7" d="M15.379,216.641H78.365v7.382H15.379Zm0,0" transform="translate(-15.379 -216.641)" fill="#393536"/>
        </g>
      </g>
    </g>
    <g id="Group_101" data-name="Group 101" transform="translate(0 -0.943)">
      <g id="Group_99" data-name="Group 99" transform="translate(8.856 2.646)">
        <g id="Group_7" data-name="Group 7" transform="translate(66.873 29.919)">
          <g id="Group_6" data-name="Group 6" transform="translate(0 0)">
            <g id="Group_5" data-name="Group 5">
              <path id="Path_10" data-name="Path 10" d="M4.274-5.273a3.954,3.954,0,0,1-2.169-.48,1.767,1.767,0,0,1-.73-1.537q0-.229.262-.229a4.439,4.439,0,0,1,.643.109,9.612,9.612,0,0,0,1.646.1,14.983,14.983,0,0,0,4.828-.73,9.134,9.134,0,0,0,3.411-1.929,3.52,3.52,0,0,0,1.242-2.539,2.189,2.189,0,0,0-1.711-2.2,13.777,13.777,0,0,0-4.349-.578l-1.733.022q-.351,1.189-.621,2.2c-.183.67-.343,1.253-.48,1.755q-.678,2.55-.937,3.433a2.049,2.049,0,0,1-1.221-.371,1.09,1.09,0,0,1-.512-.916,3.25,3.25,0,0,1,.24-1.068l.087-.283.305-.937A82.7,82.7,0,0,1,6.923-23.136a9.358,9.358,0,0,0-2.409.937c-.082.03-.193.082-.338.153a.768.768,0,0,1-.294.109.951.951,0,0,1-.589-.338.941.941,0,0,1-.349-.578,22.964,22.964,0,0,1,2.888-.981,11.919,11.919,0,0,1,3.008-.338,9.837,9.837,0,0,1,4.1.807,3,3,0,0,1,1.777,3.019A3.41,3.41,0,0,1,13.3-17.48a9.36,9.36,0,0,1-3.477,1.558,7.061,7.061,0,0,1,3.836,1.428,3.113,3.113,0,0,1,1.2,2.332,4.809,4.809,0,0,1-1.766,3.706A11.808,11.808,0,0,1,8.83-6.08,14.969,14.969,0,0,1,4.274-5.273ZM5.844-16.161a12.075,12.075,0,0,0,5.068-1.155,3.417,3.417,0,0,0,2.027-3.226q0-2.8-4.4-2.8A42.882,42.882,0,0,0,5.844-16.161Zm0,0" transform="translate(-1.375 24.172)" fill="#32d56e"/>
            </g>
          </g>
        </g>
        <g id="Group_10" data-name="Group 10" transform="translate(80.989 38.747)">
          <g id="Group_9" data-name="Group 9" transform="translate(0 0)">
            <g id="Group_8" data-name="Group 8" transform="translate(0)">
              <path id="Path_11" data-name="Path 11" d="M1.043-2.382A1.85,1.85,0,0,1-.319-2.927,2,2,0,0,1-.875-4.442,6.131,6.131,0,0,1,.117-7.483a9.893,9.893,0,0,1,2.539-2.856,5.1,5.1,0,0,1,3.1-1.177,2.733,2.733,0,0,1,1.722.534A1.615,1.615,0,0,1,8.16-9.641c0,.719-.444,1.1-1.33,1.123.559.174.839.411.839.708a1.254,1.254,0,0,1-.164.49c-.109.218-.234.444-.371.676a8.942,8.942,0,0,0-.589,1.068,2.062,2.062,0,0,0-.207.85,1.011,1.011,0,0,0,.174.6.6.6,0,0,0,.523.24,2.847,2.847,0,0,0,1.668-.9,9.766,9.766,0,0,0,1.984-2.747l.447.447A9.264,9.264,0,0,1,8.978-3.963,3.867,3.867,0,0,1,6.384-2.786a1.737,1.737,0,0,1-1.439-.621,2.143,2.143,0,0,1-.5-1.406A12.5,12.5,0,0,1,2.634-2.971,2.515,2.515,0,0,1,1.043-2.382Zm.49-1.2A2.908,2.908,0,0,0,3.441-4.758,36.536,36.536,0,0,0,5.915-7.843l.469-.632a.207.207,0,0,1,.185-.109l.1.022a2.856,2.856,0,0,0,.12-.872c0-.807-.332-1.21-.992-1.21a3.186,3.186,0,0,0-2.147,1.1A9.726,9.726,0,0,0,1.763-6.916,5.99,5.99,0,0,0,1-4.322a.954.954,0,0,0,.131.567A.468.468,0,0,0,1.534-3.581Zm0,0" transform="translate(0.875 11.516)" fill="#32d56e"/>
            </g>
          </g>
        </g>
        <g id="Group_13" data-name="Group 13" transform="translate(92.299 32.807)">
          <g id="Group_12" data-name="Group 12" transform="translate(0 0)">
            <g id="Group_11" data-name="Group 11">
              <path id="Path_12" data-name="Path 12" d="M2.054-4.98A2.241,2.241,0,0,1,.376-5.6a2.517,2.517,0,0,1-.61-1.842A10.081,10.081,0,0,1,.114-9.765a28.067,28.067,0,0,1,.937-3.008,3.96,3.96,0,0,1-.817-.218v-.719c.371.044.744.082,1.123.109a27.761,27.761,0,0,1,2.256-4.534q1.21-1.9,1.962-1.9a.639.639,0,0,1,.447.185.637.637,0,0,1,.207.49,2.373,2.373,0,0,1-.327,1q-.327.634-1.079,1.918Q3.785-14.7,3.21-13.525q2.689,0,4.283-.163v.774q-2.771.274-4.708.272A12.811,12.811,0,0,0,1.564-7.934a2.3,2.3,0,0,0,.305,1.362,1.137,1.137,0,0,0,.959.392,3.7,3.7,0,0,0,2.4-1.057,9.251,9.251,0,0,0,2.147-2.9L7.7-9.9A10.281,10.281,0,0,1,5.215-6.353,4.68,4.68,0,0,1,2.054-4.98Zm0,0" transform="translate(0.234 20.031)" fill="#32d56e"/>
            </g>
          </g>
        </g>
        <g id="Group_16" data-name="Group 16" transform="translate(99.651 39.805)">
          <g id="Group_15" data-name="Group 15" transform="translate(0 0)">
            <g id="Group_14" data-name="Group 14">
              <path id="Path_13" data-name="Path 13" d="M1.767-2.327A1.526,1.526,0,0,1,.481-3.047,2.887,2.887,0,0,1-.031-4.758a7.752,7.752,0,0,1,.371-2.1,12.018,12.018,0,0,1,.883-2.2q.5-.936.872-.937a1.3,1.3,0,0,1,.5.174,2.218,2.218,0,0,1,.6.436A10.516,10.516,0,0,0,2.181-7.308a6.737,6.737,0,0,0-.523,2.343,3.712,3.712,0,0,0,.12.926.562.562,0,0,0,.578.48q.858,0,2.071-1.929A29.847,29.847,0,0,0,6.5-9.411c.937.153,1.406.42,1.406.8a6.361,6.361,0,0,1-.283.676c-.327.763-.608,1.477-.839,2.136a5.154,5.154,0,0,0-.349,1.7c0,.545.21.817.632.817a2.263,2.263,0,0,0,1.177-.447A6.839,6.839,0,0,0,9.658-5.041a9.109,9.109,0,0,0,1.264-1.984l.349.272a8.99,8.99,0,0,1-1.33,2.278A6.735,6.735,0,0,1,8.176-2.9a3.519,3.519,0,0,1-1.82.578,1.267,1.267,0,0,1-1.319-.708,5.123,5.123,0,0,1-.294-1.907,11.594,11.594,0,0,1-1.5,1.918A2.084,2.084,0,0,1,1.767-2.327Zm0,0" transform="translate(0.031 10)" fill="#32d56e"/>
            </g>
          </g>
        </g>
        <g id="Group_19" data-name="Group 19" transform="translate(110.585 30.061)">
          <g id="Group_18" data-name="Group 18" transform="translate(0 0)">
            <g id="Group_17" data-name="Group 17">
              <path id="Path_14" data-name="Path 14" d="M1.131-6.356C.8-6.356.559-6.607.4-7.108A6.628,6.628,0,0,1,.172-9a17.95,17.95,0,0,1,1.319-5.722,36.031,36.031,0,0,1,3.03-6.43q1.708-2.812,2.79-2.812a.806.806,0,0,1,.73.523A2.43,2.43,0,0,1,8.313-22.3a7.729,7.729,0,0,1-.785,2.877,16.911,16.911,0,0,1-2.06,3.477,9.386,9.386,0,0,1-2.627,2.474,11.251,11.251,0,0,0-.8,3.978L2.068-9c.027-.049.1-.221.207-.512a20.543,20.543,0,0,1,.981-2.2,7.2,7.2,0,0,1,1.417-1.831,2.949,2.949,0,0,1,2.093-.861,1.8,1.8,0,0,1,1.569.687,2.722,2.722,0,0,1,.49,1.624,3.532,3.532,0,0,1-.142,1.014c-.087.313-.226.708-.414,1.188-.03.065-.087.213-.174.436a5,5,0,0,0-.2.61,2.367,2.367,0,0,0-.054.48c0,.5.21.752.632.752A2.166,2.166,0,0,0,9.7-8.133a7.593,7.593,0,0,0,1.373-1.384,10.333,10.333,0,0,0,1.177-1.875l.371.392a10.007,10.007,0,0,1-2.093,3.117A3.739,3.739,0,0,1,7.9-6.683a1.875,1.875,0,0,1-1.351-.458,1.56,1.56,0,0,1-.48-1.188A7.767,7.767,0,0,1,6.4-10.007a6.68,6.68,0,0,0,.349-1.711q0-.981-.839-.981a1.67,1.67,0,0,0-1.417.883,16.464,16.464,0,0,0-1.3,2.572A14.36,14.36,0,0,1,2.155-7.076,1.231,1.231,0,0,1,1.131-6.356Zm2.2-8.621a10.785,10.785,0,0,0,1.842-2.245A18.153,18.153,0,0,0,6.624-19.9a5.549,5.549,0,0,0,.567-1.864,4,4,0,0,0-1.014,1.144,21.455,21.455,0,0,0-1.515,2.55A21.835,21.835,0,0,0,3.333-14.977Zm0,0" transform="translate(-0.172 23.969)" fill="#32d56e"/>
            </g>
          </g>
        </g>
        <g id="Group_22" data-name="Group 22" transform="translate(121.888 38.747)">
          <g id="Group_21" data-name="Group 21" transform="translate(0 0)">
            <g id="Group_20" data-name="Group 20">
              <path id="Path_15" data-name="Path 15" d="M1.043-2.382A1.85,1.85,0,0,1-.319-2.927,2,2,0,0,1-.875-4.442,6.131,6.131,0,0,1,.117-7.483a9.893,9.893,0,0,1,2.539-2.856,5.1,5.1,0,0,1,3.1-1.177,2.733,2.733,0,0,1,1.722.534A1.615,1.615,0,0,1,8.16-9.641c0,.719-.444,1.1-1.33,1.123.559.174.839.411.839.708a1.254,1.254,0,0,1-.164.49c-.109.218-.234.444-.371.676a8.942,8.942,0,0,0-.589,1.068,2.062,2.062,0,0,0-.207.85,1.011,1.011,0,0,0,.174.6.6.6,0,0,0,.523.24,2.847,2.847,0,0,0,1.668-.9,9.766,9.766,0,0,0,1.984-2.747l.447.447A9.264,9.264,0,0,1,8.978-3.963,3.867,3.867,0,0,1,6.384-2.786a1.737,1.737,0,0,1-1.439-.621,2.143,2.143,0,0,1-.5-1.406A12.5,12.5,0,0,1,2.634-2.971,2.515,2.515,0,0,1,1.043-2.382Zm.49-1.2A2.908,2.908,0,0,0,3.441-4.758,36.536,36.536,0,0,0,5.915-7.843l.469-.632a.207.207,0,0,1,.185-.109l.1.022a2.856,2.856,0,0,0,.12-.872c0-.807-.332-1.21-.992-1.21a3.186,3.186,0,0,0-2.147,1.1A9.726,9.726,0,0,0,1.763-6.916,5.99,5.99,0,0,0,1-4.322a.954.954,0,0,0,.131.567A.468.468,0,0,0,1.534-3.581Zm0,0" transform="translate(0.875 11.516)" fill="#32d56e"/>
            </g>
          </g>
        </g>
        <g id="Group_25" data-name="Group 25" transform="translate(132.467 39.946)">
          <g id="Group_24" data-name="Group 24" transform="translate(0 0)">
            <g id="Group_23" data-name="Group 23">
              <path id="Path_16" data-name="Path 16" d="M7.5-2.495a1.985,1.985,0,0,1-1.384-.447,1.5,1.5,0,0,1-.49-1.166,2.927,2.927,0,0,1,.1-.7c.071-.267.147-.537.229-.807A6.178,6.178,0,0,0,6.283-7.2a.9.9,0,0,0-.24-.687.784.784,0,0,0-.578-.229A3.425,3.425,0,0,0,2.958-6.56,35.663,35.663,0,0,0,.245-2.615,1.816,1.816,0,0,1-1.281-3.29l.218-.589A14.874,14.874,0,0,0,.31-8.838a1.967,1.967,0,0,1,.545-.381A1.446,1.446,0,0,1,1.531-9.4a.86.86,0,0,1,.61.2.661.661,0,0,1,.207.512,9.178,9.178,0,0,1-.392,2.082A11.752,11.752,0,0,1,4.135-8.9,3.675,3.675,0,0,1,6.381-9.8a1.753,1.753,0,0,1,1.45.643,2.4,2.4,0,0,1,.512,1.537,3.613,3.613,0,0,1-.131.981A6.569,6.569,0,0,1,7.83-5.59a4.43,4.43,0,0,0-.4,1.482A.7.7,0,0,0,7.59-3.6a.569.569,0,0,0,.4.163A2.4,2.4,0,0,0,9.661-4.489,12.64,12.64,0,0,0,11.3-7.018l.392.327A11.014,11.014,0,0,1,9.825-3.617,3.063,3.063,0,0,1,7.5-2.495Zm0,0" transform="translate(1.281 9.797)" fill="#32d56e"/>
            </g>
          </g>
        </g>
        <g id="Group_28" data-name="Group 28" transform="translate(152.46 29.854)">
          <g id="Group_27" data-name="Group 27" transform="translate(0 0)">
            <g id="Group_26" data-name="Group 26">
              <path id="Path_17" data-name="Path 17" d="M13.121-5.3q-.862,0-2.169-1.384a25.733,25.733,0,0,1-2.616-3.357A40.823,40.823,0,0,1,6.1-13.781L3.966-6.893a1.331,1.331,0,0,1-.883.959,5.607,5.607,0,0,1-1.646.207c.283-.61.559-1.281.828-2.005S2.952-9.645,3.5-11.274q2.223-6.507,3.684-10.485c.014-.049.06-.185.142-.4a1.643,1.643,0,0,0,.131-.61c0-.289-.158-.436-.469-.436a1.864,1.864,0,0,0-1.33.687A5.287,5.287,0,0,0,4.6-20.854a4.6,4.6,0,0,0-.392,1.668,2.7,2.7,0,0,0,.229,1.079,2.1,2.1,0,0,1-1.417-.4,1.435,1.435,0,0,1-.458-1.123A3.443,3.443,0,0,1,3.377-21.7a7.285,7.285,0,0,1,1.994-1.776A4.186,4.186,0,0,1,7.508-24.2c.856,0,1.286.455,1.286,1.362a2.954,2.954,0,0,1-.163.937L6.9-16.288q.282-.164,1.613-1.188a35.082,35.082,0,0,0,3.706-3.313,23.568,23.568,0,0,0,2.845-3.477,1.18,1.18,0,0,1,.36.6A2.38,2.38,0,0,1,15.53-23q0,1.594-2.637,3.8A57.056,57.056,0,0,1,6.9-14.827Q8.14-12.906,9.012-11.71a24.14,24.14,0,0,0,2.212,2.539,35.05,35.05,0,0,0,3.346,2.888,1.954,1.954,0,0,1-.632.687A1.419,1.419,0,0,1,13.121-5.3Zm0,0" transform="translate(-1.438 24.266)" fill="#32d56e"/>
            </g>
          </g>
        </g>
        <g id="Group_31" data-name="Group 31" transform="translate(166.435 38.333)">
          <g id="Group_30" data-name="Group 30" transform="translate(0 0)">
            <g id="Group_29" data-name="Group 29">
              <path id="Path_18" data-name="Path 18" d="M2.539-2.627a3.158,3.158,0,0,1-2.3-.807A2.7,2.7,0,0,1-.578-5.461,5.939,5.939,0,0,1,.337-8.4a8.619,8.619,0,0,1,2.343-2.638,4.705,4.705,0,0,1,2.812-1.068,1.99,1.99,0,0,1,1.21.36,1.38,1.38,0,0,1,.5,1.2,3.166,3.166,0,0,1-.872,2.125A6.481,6.481,0,0,1,4.1-6.8a9.141,9.141,0,0,1-2.8.8,3,3,0,0,0-.044.545,2.468,2.468,0,0,0,.338,1.21c.223.409.711.61,1.46.61A4.757,4.757,0,0,0,5.961-4.8,8.926,8.926,0,0,0,8.37-7.684l.469.371a8.436,8.436,0,0,1-2.681,3.4A6.038,6.038,0,0,1,2.539-2.627Zm-.981-4.24a5.155,5.155,0,0,0,1.875-.676A6.559,6.559,0,0,0,5.209-8.981a2.636,2.636,0,0,0,.73-1.678.468.468,0,0,0-.1-.349.419.419,0,0,0-.305-.1,2.462,2.462,0,0,0-1.482.643A7.64,7.64,0,0,0,2.561-8.829,7.784,7.784,0,0,0,1.558-6.867Zm0,0" transform="translate(0.578 12.109)" fill="#32d56e"/>
            </g>
          </g>
        </g>
        <g id="Group_34" data-name="Group 34" transform="translate(174.821 37.538)">
          <g id="Group_33" data-name="Group 33" transform="translate(0 0)">
            <g id="Group_32" data-name="Group 32">
              <path id="Path_19" data-name="Path 19" d="M2.532-2.809a2.961,2.961,0,0,1-2.42-.948A3.44,3.44,0,0,1-.672-6.024,1.889,1.889,0,0,1-.345-7.288a2.237,2.237,0,0,1,.73-.556,2.192,2.192,0,0,0,.49-.262,11.913,11.913,0,0,0,2.267-3.2v-.24a2.226,2.226,0,0,1,.294-1.275A.891.891,0,0,1,4.2-13.25a.484.484,0,0,1,.556.469,1.83,1.83,0,0,1-.054.349,2.019,2.019,0,0,0-.054.49A3.626,3.626,0,0,0,4.778-11q.139.49.447,1.33c.253.692.447,1.286.578,1.787A5.911,5.911,0,0,1,6-6.373a6.426,6.426,0,0,1-.087.959A4.6,4.6,0,0,0,8.668-8.062l.283.218A5.575,5.575,0,0,1,7.644-5.686a3.425,3.425,0,0,1-1.951.981A2.735,2.735,0,0,1,4.472-3.3,3.781,3.781,0,0,1,2.532-2.809ZM4.058-5.457a2.826,2.826,0,0,0,.065-.73A9.573,9.573,0,0,0,3.96-7.659c-.1-.485-.234-1.112-.414-1.875l-.218-.839A15.858,15.858,0,0,1,1.29-7.452,4.22,4.22,0,0,0,2.413-6.22,4.383,4.383,0,0,0,4.058-5.457ZM2.369-3.844a1.744,1.744,0,0,0,.872-.229,1.562,1.562,0,0,0,.632-.687,4.6,4.6,0,0,1-1.689-.708A5.442,5.442,0,0,1,.941-6.6c-.218.044-.327.256-.327.632a2.439,2.439,0,0,0,.469,1.482A1.5,1.5,0,0,0,2.369-3.844Zm0,0" transform="translate(0.672 13.25)" fill="#32d56e"/>
            </g>
          </g>
        </g>
        <g id="Group_37" data-name="Group 37" transform="translate(184.018 30.061)">
          <g id="Group_36" data-name="Group 36" transform="translate(0 0)">
            <g id="Group_35" data-name="Group 35">
              <path id="Path_20" data-name="Path 20" d="M7.441-6.356A1.96,1.96,0,0,1,5.893-7.1a4.735,4.735,0,0,1-.937-1.766,6.6,6.6,0,0,1-.305-1.853Q7.667-11.39,7.67-12.8a.882.882,0,0,0-.273-.676,1.018,1.018,0,0,0-.752-.262,3.05,3.05,0,0,0-2.518,1.82,25.2,25.2,0,0,0-1.984,4.2,2.915,2.915,0,0,1-.49.948.874.874,0,0,1-.676.251.808.808,0,0,1-.643-.338A2.454,2.454,0,0,1,.063-8.285a18.772,18.772,0,0,1,1.384-6.4,34.575,34.575,0,0,1,3.161-6.5q1.774-2.787,2.714-2.79a.772.772,0,0,1,.665.5,2.482,2.482,0,0,1,.272,1.21,6.022,6.022,0,0,1-.621,2.43A10.684,10.684,0,0,1,5.9-17.2a10.258,10.258,0,0,1-2.5,2.082,21.67,21.67,0,0,0-.981,2.943,16.741,16.741,0,0,0-.469,2.7q2.526-5.808,5.2-5.809a2.281,2.281,0,0,1,1.635.676A2.15,2.15,0,0,1,9.5-12.983,2.079,2.079,0,0,1,8.912-11.5a3.725,3.725,0,0,1-1.384.937,4.237,4.237,0,0,1-1.4.338,8.429,8.429,0,0,0,.632,1.918,1.3,1.3,0,0,0,1.21.828A2.5,2.5,0,0,0,9.752-8.59a12.467,12.467,0,0,0,1.711-2.823l.327.392A9.667,9.667,0,0,1,9.915-7.74,3.38,3.38,0,0,1,7.441-6.356ZM4.1-16.71a12.192,12.192,0,0,0,2.093-2.42,5,5,0,0,0,.97-2.637,5.152,5.152,0,0,0-1.286,1.646A27.77,27.77,0,0,0,4.1-16.71Zm0,0" transform="translate(-0.063 23.969)" fill="#32d56e"/>
            </g>
          </g>
        </g>
        <g id="Group_40" data-name="Group 40" transform="translate(195.073 35.031)">
          <g id="Group_39" data-name="Group 39" transform="translate(0 0)">
            <g id="Group_38" data-name="Group 38">
              <path id="Path_21" data-name="Path 21" d="M1.794-4.4A1.975,1.975,0,0,1,.268-4.986,2.119,2.119,0,0,1-.266-6.479,8.752,8.752,0,0,1,.258-9.018a11.383,11.383,0,0,1,1.33-2.812c.545-.812,1.09-1.221,1.635-1.221a.739.739,0,0,1,.5.174.637.637,0,0,1,.2.5,1.429,1.429,0,0,1-.185.578c-.125.24-.327.586-.61,1.035A22.881,22.881,0,0,0,1.947-8.572a4.281,4.281,0,0,0-.436,1.787,1.445,1.445,0,0,0,.251.992,1.118,1.118,0,0,0,.807.251q1.839,0,3.673-3.575l.349.371a8.439,8.439,0,0,1-2.082,3.2A3.99,3.99,0,0,1,1.794-4.4ZM4.388-14.719a1.163,1.163,0,0,1-.763-.24.863.863,0,0,1-.294-.7,1,1,0,0,1,.512-.839,1.977,1.977,0,0,1,1.112-.349.952.952,0,0,1,.7.229.792.792,0,0,1,.24.61,1.173,1.173,0,0,1-.469.894A1.581,1.581,0,0,1,4.388-14.719Zm0,0" transform="translate(0.266 16.844)" fill="#32d56e"/>
            </g>
          </g>
        </g>
        <g id="Group_43" data-name="Group 43" transform="translate(200.569 39.946)">
          <g id="Group_42" data-name="Group 42" transform="translate(0 0)">
            <g id="Group_41" data-name="Group 41">
              <path id="Path_22" data-name="Path 22" d="M7.5-2.495a1.985,1.985,0,0,1-1.384-.447,1.5,1.5,0,0,1-.49-1.166,2.927,2.927,0,0,1,.1-.7c.071-.267.147-.537.229-.807A6.178,6.178,0,0,0,6.283-7.2a.9.9,0,0,0-.24-.687.784.784,0,0,0-.578-.229A3.425,3.425,0,0,0,2.958-6.56,35.663,35.663,0,0,0,.245-2.615,1.816,1.816,0,0,1-1.281-3.29l.218-.589A14.874,14.874,0,0,0,.31-8.838a1.967,1.967,0,0,1,.545-.381A1.446,1.446,0,0,1,1.531-9.4a.86.86,0,0,1,.61.2.661.661,0,0,1,.207.512,9.178,9.178,0,0,1-.392,2.082A11.752,11.752,0,0,1,4.135-8.9,3.675,3.675,0,0,1,6.381-9.8a1.753,1.753,0,0,1,1.45.643,2.4,2.4,0,0,1,.512,1.537,3.613,3.613,0,0,1-.131.981A6.569,6.569,0,0,1,7.83-5.59a4.43,4.43,0,0,0-.4,1.482A.7.7,0,0,0,7.59-3.6a.569.569,0,0,0,.4.163A2.4,2.4,0,0,0,9.661-4.489,12.64,12.64,0,0,0,11.3-7.018l.392.327A11.014,11.014,0,0,1,9.825-3.617,3.063,3.063,0,0,1,7.5-2.495Zm0,0" transform="translate(1.281 9.797)" fill="#32d56e"/>
            </g>
          </g>
        </g>
        <g id="Group_46" data-name="Group 46" transform="translate(212.535 37.538)">
          <g id="Group_45" data-name="Group 45" transform="translate(0 0)">
            <g id="Group_44" data-name="Group 44">
              <path id="Path_23" data-name="Path 23" d="M2.532-2.809a2.961,2.961,0,0,1-2.42-.948A3.44,3.44,0,0,1-.672-6.024,1.889,1.889,0,0,1-.345-7.288a2.237,2.237,0,0,1,.73-.556,2.192,2.192,0,0,0,.49-.262,11.913,11.913,0,0,0,2.267-3.2v-.24a2.226,2.226,0,0,1,.294-1.275A.891.891,0,0,1,4.2-13.25a.484.484,0,0,1,.556.469,1.83,1.83,0,0,1-.054.349,2.019,2.019,0,0,0-.054.49A3.626,3.626,0,0,0,4.778-11q.139.49.447,1.33c.253.692.447,1.286.578,1.787A5.911,5.911,0,0,1,6-6.373a6.426,6.426,0,0,1-.087.959A4.6,4.6,0,0,0,8.668-8.062l.283.218A5.575,5.575,0,0,1,7.644-5.686a3.425,3.425,0,0,1-1.951.981A2.735,2.735,0,0,1,4.472-3.3,3.781,3.781,0,0,1,2.532-2.809ZM4.058-5.457a2.826,2.826,0,0,0,.065-.73A9.573,9.573,0,0,0,3.96-7.659c-.1-.485-.234-1.112-.414-1.875l-.218-.839A15.858,15.858,0,0,1,1.29-7.452,4.22,4.22,0,0,0,2.413-6.22,4.383,4.383,0,0,0,4.058-5.457ZM2.369-3.844a1.744,1.744,0,0,0,.872-.229,1.562,1.562,0,0,0,.632-.687,4.6,4.6,0,0,1-1.689-.708A5.442,5.442,0,0,1,.941-6.6c-.218.044-.327.256-.327.632a2.439,2.439,0,0,0,.469,1.482A1.5,1.5,0,0,0,2.369-3.844Zm0,0" transform="translate(0.672 13.25)" fill="#32d56e"/>
            </g>
          </g>
        </g>
        <g id="Group_49" data-name="Group 49" transform="translate(221.406 38.54)">
          <g id="Group_48" data-name="Group 48" transform="translate(0 0)">
            <g id="Group_47" data-name="Group 47">
              <path id="Path_24" data-name="Path 24" d="M1.425-2.821a1.575,1.575,0,0,1-1.4-.632A2.7,2.7,0,0,1-.406-5.023,5.751,5.751,0,0,1,0-7.061,5.437,5.437,0,0,1,1.065-8.815a1.878,1.878,0,0,1,1.341-.708,1.938,1.938,0,0,1,.73.2A3.172,3.172,0,0,1,3.888-11.1a2.2,2.2,0,0,1,1.744-.708,1.713,1.713,0,0,1,1.384.534,2.031,2.031,0,0,1,.447,1.362,5.039,5.039,0,0,1-.436,1.875,13.772,13.772,0,0,1-1.112,2.1,1.427,1.427,0,0,0,.654.142,2.821,2.821,0,0,0,1.406-.436A2.76,2.76,0,0,0,9.119-7.551l.425.305A4,4,0,0,1,8.226-5.535,2.963,2.963,0,0,1,6.5-4.957a3.752,3.752,0,0,1-1.177-.207,8.219,8.219,0,0,1-1.9,1.678A3.7,3.7,0,0,1,1.425-2.821ZM5.119-6.428a10.108,10.108,0,0,0,.97-1.8,4.432,4.432,0,0,0,.392-1.689q0-1.034-.654-1.035a.958.958,0,0,0-.632.305,2.37,2.37,0,0,0-.545.817,2.849,2.849,0,0,0-.207,1.1,4.8,4.8,0,0,0,.185,1.242A2.77,2.77,0,0,0,5.119-6.428ZM2.264-4.02a1.793,1.793,0,0,0,1.024-.469A8.116,8.116,0,0,0,4.509-5.676,4.562,4.562,0,0,1,3.1-9.12a2.255,2.255,0,0,0-.676.872,9.108,9.108,0,0,0-.676,1.613A5.081,5.081,0,0,0,1.468-5.1Q1.468-4.02,2.264-4.02Zm0,0" transform="translate(0.406 11.813)" fill="#32d56e"/>
            </g>
          </g>
        </g>
        <g id="Group_52" data-name="Group 52" transform="translate(230.398 39.543)">
          <g id="Group_51" data-name="Group 51" transform="translate(0 0)">
            <g id="Group_50" data-name="Group 50">
              <path id="Path_25" data-name="Path 25" d="M.919,3.412A1.724,1.724,0,0,1-.2,3.031,1.383,1.383,0,0,1-.672,1.9,2.418,2.418,0,0,1,.015.23a6.868,6.868,0,0,1,1.6-1.264q.916-.515,2.365-1.188.4-1.014,1.133-3.651A10.428,10.428,0,0,1,3.459-4a2.632,2.632,0,0,1-1.722.676A2.2,2.2,0,0,1,.353-3.792a1.745,1.745,0,0,1-.6-1.471A7.339,7.339,0,0,1,.124-7.291a10.849,10.849,0,0,1,.883-2.158c.349-.616.646-.926.894-.926a1.743,1.743,0,0,1,.708.251,1.025,1.025,0,0,1,.556.523,8.777,8.777,0,0,0-.97,2.038,7.05,7.05,0,0,0-.523,2.245c0,.583.223.872.676.872a2.284,2.284,0,0,0,1.526-.817A11.875,11.875,0,0,0,5.442-7.28c.027-.109.071-.365.131-.774A2.492,2.492,0,0,1,6-9.122a1.08,1.08,0,0,1,.937-.458q.1,0,.752.1a15.536,15.536,0,0,1-.556,2.55Q6.609-4.969,5.911-3.095A6.962,6.962,0,0,0,8.069-4.522a6.466,6.466,0,0,0,1.6-2.529l.4.327A5.91,5.91,0,0,1,8.374-4,10.559,10.559,0,0,1,5.606-2.2,19.433,19.433,0,0,1,3.361,1.9,3.139,3.139,0,0,1,.919,3.412ZM.69,2.551q.49,0,1.286-1A12.7,12.7,0,0,0,3.546-1.2,11.872,11.872,0,0,0,1.214.306,2.206,2.206,0,0,0,.244,1.9a.989.989,0,0,0,.1.447A.367.367,0,0,0,.69,2.551Zm0,0" transform="translate(0.672 10.375)" fill="#32d56e"/>
            </g>
          </g>
        </g>
      </g>
      <g id="Group_100" data-name="Group 100" transform="translate(9.301 2)">
        <g id="Group_55" data-name="Group 55" transform="translate(66.428 9.186)">
          <g id="Group_54" data-name="Group 54" transform="translate(0 0)">
            <g id="Group_53" data-name="Group 53" transform="translate(0 0)">
              <path id="Path_26" data-name="Path 26" d="M4.224-2.811a3.629,3.629,0,0,1-1.575-.336A2.682,2.682,0,0,1,1.526-4.212a3.694,3.694,0,0,1-.417-1.852v-5.326H2.117v5.337a2.366,2.366,0,0,0,.59,1.795,2.172,2.172,0,0,0,1.54.544,2.153,2.153,0,0,0,1.54-.544,2.4,2.4,0,0,0,.579-1.795v-5.337H7.373v5.326a3.632,3.632,0,0,1-.428,1.852A2.6,2.6,0,0,1,5.81-3.147,3.672,3.672,0,0,1,4.224-2.811Zm0,0" transform="translate(-1.109 11.391)" fill="#4f4c4c"/>
            </g>
          </g>
        </g>
        <g id="Group_58" data-name="Group 58" transform="translate(77.033 11.652)">
          <g id="Group_57" data-name="Group 57" transform="translate(0 0)">
            <g id="Group_56" data-name="Group 56">
              <path id="Path_27" data-name="Path 27" d="M.563-2.088v-.834L3.9-7.217H.632v-.845h4.4v.822L1.7-2.934H5.089v.845Zm0,0" transform="translate(-0.563 8.063)" fill="#4f4c4c"/>
            </g>
          </g>
        </g>
        <g id="Group_61" data-name="Group 61" transform="translate(86.002 11.502)">
          <g id="Group_60" data-name="Group 60" transform="translate(0 0)">
            <g id="Group_59" data-name="Group 59" transform="translate(0 0)">
              <path id="Path_28" data-name="Path 28" d="M1.125-2.141V-8.115H2.04l.069.868A2.028,2.028,0,0,1,2.873-8a2.257,2.257,0,0,1,1.1-.266,2.452,2.452,0,0,1,1.216.289,1.922,1.922,0,0,1,.787.88,2.276,2.276,0,0,1,.857-.857,2.391,2.391,0,0,1,1.193-.313,2.3,2.3,0,0,1,1.714.648,2.74,2.74,0,0,1,.637,1.98v3.5h-1V-5.533A2.15,2.15,0,0,0,9-6.923,1.276,1.276,0,0,0,7.933-7.4a1.527,1.527,0,0,0-1.2.567,2.365,2.365,0,0,0-.475,1.586v3.1H5.247V-5.533a2.15,2.15,0,0,0-.382-1.389A1.276,1.276,0,0,0,3.8-7.4a1.517,1.517,0,0,0-1.193.567,2.365,2.365,0,0,0-.475,1.586v3.1Zm0,0" transform="translate(-1.125 8.266)" fill="#4f4c4c"/>
            </g>
          </g>
        </g>
        <g id="Group_64" data-name="Group 64" transform="translate(99.659 11.502)">
          <g id="Group_63" data-name="Group 63" transform="translate(0 0)">
            <g id="Group_62" data-name="Group 62" transform="translate(0 0)">
              <path id="Path_29" data-name="Path 29" d="M3.035-2a2.831,2.831,0,0,1-1.25-.243,1.752,1.752,0,0,1-.729-.672,1.837,1.837,0,0,1-.243-.926,1.607,1.607,0,0,1,.695-1.4,3.266,3.266,0,0,1,1.91-.5H5.027v-.081A1.61,1.61,0,0,0,4.622-7a1.493,1.493,0,0,0-1.1-.405,1.729,1.729,0,0,0-1.019.3,1.26,1.26,0,0,0-.533.857H.928a1.966,1.966,0,0,1,.44-1.088,2.433,2.433,0,0,1,.949-.683,3.014,3.014,0,0,1,1.2-.243,2.468,2.468,0,0,1,1.887.672,2.48,2.48,0,0,1,.637,1.771v3.682h-.9L5.085-3.218a2.369,2.369,0,0,1-.753.868A2.191,2.191,0,0,1,3.035-2Zm.151-.845a1.644,1.644,0,0,0,1-.3,1.844,1.844,0,0,0,.625-.787,2.472,2.472,0,0,0,.22-1.019v-.012H3.5a1.968,1.968,0,0,0-1.262.313.957.957,0,0,0-.359.764.948.948,0,0,0,.336.764A1.52,1.52,0,0,0,3.186-2.847Zm0,0" transform="translate(-0.813 8.266)" fill="#4f4c4c"/>
            </g>
          </g>
        </g>
        <g id="Group_67" data-name="Group 67" transform="translate(109.516 11.502)">
          <g id="Group_66" data-name="Group 66" transform="translate(0 0)">
            <g id="Group_65" data-name="Group 65" transform="translate(0 0)">
              <path id="Path_30" data-name="Path 30" d="M1.125-2.141V-8.115H2.04L2.1-7.05a2.152,2.152,0,0,1,.834-.891,2.362,2.362,0,0,1,1.227-.324,2.244,2.244,0,0,1,1.69.648,2.739,2.739,0,0,1,.637,1.98v3.5H5.478V-5.533Q5.478-7.4,3.927-7.4a1.682,1.682,0,0,0-1.285.567,2.257,2.257,0,0,0-.509,1.586v3.1Zm0,0" transform="translate(-1.125 8.266)" fill="#4f4c4c"/>
            </g>
          </g>
        </g>
        <g id="Group_70" data-name="Group 70" transform="translate(125.873 9.186)">
          <g id="Group_69" data-name="Group 69" transform="translate(0 0)">
            <g id="Group_68" data-name="Group 68" transform="translate(0 0)">
              <path id="Path_31" data-name="Path 31" d="M1.2-2.95v-8.44H3.8a4.277,4.277,0,0,1,3.277,1.135A4.377,4.377,0,0,1,8.138-7.142,4.3,4.3,0,0,1,7.073-4.073,4.3,4.3,0,0,1,3.8-2.95ZM2.21-3.8H3.773A4.016,4.016,0,0,0,5.73-4.2,2.294,2.294,0,0,0,6.772-5.359a4.621,4.621,0,0,0,.313-1.783,4.744,4.744,0,0,0-.313-1.818A2.307,2.307,0,0,0,5.73-10.129a3.944,3.944,0,0,0-1.957-.417H2.21Zm0,0" transform="translate(-1.203 11.391)" fill="#4f4c4c"/>
            </g>
          </g>
        </g>
        <g id="Group_73" data-name="Group 73" transform="translate(137.225 8.943)">
          <g id="Group_72" data-name="Group 72" transform="translate(0 0)">
            <g id="Group_71" data-name="Group 71" transform="translate(0 0)">
              <path id="Path_32" data-name="Path 32" d="M1.71-10.341a.663.663,0,0,1-.5-.2.663.663,0,0,1-.2-.5.659.659,0,0,1,.2-.486.674.674,0,0,1,.5-.2.671.671,0,0,1,.486.2.648.648,0,0,1,.208.486.651.651,0,0,1-.208.5A.659.659,0,0,1,1.71-10.341ZM1.2-3.035V-9.01H2.22v5.974Zm0,0" transform="translate(-1.016 11.719)" fill="#4f4c4c"/>
            </g>
          </g>
        </g>
        <g id="Group_76" data-name="Group 76" transform="translate(142.704 11.652)">
          <g id="Group_75" data-name="Group 75" transform="translate(0 0)">
            <g id="Group_74" data-name="Group 74">
              <path id="Path_33" data-name="Path 33" d="M1.567.563l1.482-3.23H2.7L.328-8.062h1.1L3.4-3.42l2.1-4.643H6.545L2.632.563Zm0,0" transform="translate(-0.328 8.063)" fill="#4f4c4c"/>
            </g>
          </g>
        </g>
        <g id="Group_79" data-name="Group 79" transform="translate(152.845 11.502)">
          <g id="Group_78" data-name="Group 78" transform="translate(0 0)">
            <g id="Group_77" data-name="Group 77" transform="translate(0 0)">
              <path id="Path_34" data-name="Path 34" d="M3.722-2a2.967,2.967,0,0,1-1.517-.382A2.814,2.814,0,0,1,1.163-3.472,3.42,3.42,0,0,1,.781-5.128a3.469,3.469,0,0,1,.37-1.644,2.826,2.826,0,0,1,1.042-1.1,3.022,3.022,0,0,1,1.551-.394,2.762,2.762,0,0,1,1.494.394,2.7,2.7,0,0,1,.973,1.03,2.84,2.84,0,0,1,.347,1.378c0,.087-.006.174-.012.266v.3H1.777A2.361,2.361,0,0,0,2.09-3.762a1.926,1.926,0,0,0,.718.683,1.868,1.868,0,0,0,.915.232,1.777,1.777,0,0,0,1.042-.289,1.673,1.673,0,0,0,.625-.787h1a2.685,2.685,0,0,1-.926,1.378A2.664,2.664,0,0,1,3.722-2Zm0-5.407a2.04,2.04,0,0,0-1.285.44,1.812,1.812,0,0,0-.648,1.285H5.551A1.686,1.686,0,0,0,5-6.946,1.834,1.834,0,0,0,3.722-7.409Zm0,0" transform="translate(-0.781 8.266)" fill="#4f4c4c"/>
            </g>
          </g>
        </g>
        <g id="Group_82" data-name="Group 82" transform="translate(162.622 10.217)">
          <g id="Group_81" data-name="Group 81" transform="translate(0 0)">
            <g id="Group_80" data-name="Group 80" transform="translate(0 0)">
              <path id="Path_35" data-name="Path 35" d="M3.333-2.59a1.96,1.96,0,0,1-1.3-.394A1.833,1.833,0,0,1,1.573-4.42V-7.708H.531v-.857H1.573L1.7-10h.88v1.436H4.34v.857H2.581V-4.42a.971.971,0,0,0,.232.764,1.253,1.253,0,0,0,.81.2h.625v.868Zm0,0" transform="translate(-0.531 10)" fill="#4f4c4c"/>
            </g>
          </g>
        </g>
        <g id="Group_85" data-name="Group 85" transform="translate(170.751 8.943)">
          <g id="Group_84" data-name="Group 84" transform="translate(0 0)">
            <g id="Group_83" data-name="Group 83" transform="translate(0 0)">
              <path id="Path_36" data-name="Path 36" d="M1.71-10.341a.663.663,0,0,1-.5-.2.663.663,0,0,1-.2-.5.659.659,0,0,1,.2-.486.674.674,0,0,1,.5-.2.671.671,0,0,1,.486.2.648.648,0,0,1,.208.486.651.651,0,0,1-.208.5A.659.659,0,0,1,1.71-10.341ZM1.2-3.035V-9.01H2.22v5.974Zm0,0" transform="translate(-1.016 11.719)" fill="#4f4c4c"/>
            </g>
          </g>
        </g>
        <g id="Group_88" data-name="Group 88" transform="translate(176.495 11.502)">
          <g id="Group_87" data-name="Group 87" transform="translate(0 0)">
            <g id="Group_86" data-name="Group 86" transform="translate(0 0)">
              <path id="Path_37" data-name="Path 37" d="M3.3-2A2.921,2.921,0,0,1,1.51-2.535a2.093,2.093,0,0,1-.822-1.47h1.03a1.5,1.5,0,0,0,.5.81,1.632,1.632,0,0,0,1.1.347,1.385,1.385,0,0,0,.938-.266.872.872,0,0,0,.3-.66.721.721,0,0,0-.394-.718,5.043,5.043,0,0,0-1.1-.324,5.58,5.58,0,0,1-.973-.278,2.215,2.215,0,0,1-.8-.509,1.2,1.2,0,0,1-.324-.88,1.6,1.6,0,0,1,.579-1.274A2.346,2.346,0,0,1,3.13-8.266a2.442,2.442,0,0,1,1.551.475A1.925,1.925,0,0,1,5.4-6.436H4.392A1.02,1.02,0,0,0,4-7.143a1.352,1.352,0,0,0-.88-.266,1.359,1.359,0,0,0-.845.232.736.736,0,0,0-.289.6.63.63,0,0,0,.382.567,3.869,3.869,0,0,0,1.03.347,7.692,7.692,0,0,1,1.054.3,1.926,1.926,0,0,1,.81.521,1.376,1.376,0,0,1,.324.984,1.628,1.628,0,0,1-.614,1.331A2.5,2.5,0,0,1,3.3-2Zm0,0" transform="translate(-0.688 8.266)" fill="#4f4c4c"/>
            </g>
          </g>
        </g>
        <g id="Group_91" data-name="Group 91" transform="translate(185.36 11.652)">
          <g id="Group_90" data-name="Group 90" transform="translate(0 0)">
            <g id="Group_89" data-name="Group 89">
              <path id="Path_38" data-name="Path 38" d="M1.567.563l1.482-3.23H2.7L.328-8.062h1.1L3.4-3.42l2.1-4.643H6.545L2.632.563Zm0,0" transform="translate(-0.328 8.063)" fill="#4f4c4c"/>
            </g>
          </g>
        </g>
        <g id="Group_94" data-name="Group 94" transform="translate(195.502 11.502)">
          <g id="Group_93" data-name="Group 93" transform="translate(0 0)">
            <g id="Group_92" data-name="Group 92" transform="translate(0 0)">
              <path id="Path_39" data-name="Path 39" d="M3.722-2a2.967,2.967,0,0,1-1.517-.382A2.814,2.814,0,0,1,1.163-3.472,3.42,3.42,0,0,1,.781-5.128a3.469,3.469,0,0,1,.37-1.644,2.826,2.826,0,0,1,1.042-1.1,3.022,3.022,0,0,1,1.551-.394,2.762,2.762,0,0,1,1.494.394,2.7,2.7,0,0,1,.973,1.03,2.84,2.84,0,0,1,.347,1.378c0,.087-.006.174-.012.266v.3H1.777A2.361,2.361,0,0,0,2.09-3.762a1.926,1.926,0,0,0,.718.683,1.868,1.868,0,0,0,.915.232,1.777,1.777,0,0,0,1.042-.289,1.673,1.673,0,0,0,.625-.787h1a2.685,2.685,0,0,1-.926,1.378A2.664,2.664,0,0,1,3.722-2Zm0-5.407a2.04,2.04,0,0,0-1.285.44,1.812,1.812,0,0,0-.648,1.285H5.551A1.686,1.686,0,0,0,5-6.946,1.834,1.834,0,0,0,3.722-7.409Zm0,0" transform="translate(-0.781 8.266)" fill="#4f4c4c"/>
            </g>
          </g>
        </g>
        <g id="Group_97" data-name="Group 97" transform="translate(205.718 11.502)">
          <g id="Group_96" data-name="Group 96" transform="translate(0 0)">
            <g id="Group_95" data-name="Group 95" transform="translate(0 0)">
              <path id="Path_40" data-name="Path 40" d="M1.125-2.141V-8.115H2.04L2.1-7.05a2.152,2.152,0,0,1,.834-.891,2.362,2.362,0,0,1,1.227-.324,2.244,2.244,0,0,1,1.69.648,2.739,2.739,0,0,1,.637,1.98v3.5H5.478V-5.533Q5.478-7.4,3.927-7.4a1.682,1.682,0,0,0-1.285.567,2.257,2.257,0,0,0-.509,1.586v3.1Zm0,0" transform="translate(-1.125 8.266)" fill="#4f4c4c"/>
            </g>
          </g>
        </g>
      </g>
    </g>
  </g>
</svg>
